<svg xmlns="http://www.w3.org/2000/svg" xmlns:xlink="http://www.w3.org/1999/xlink" contentStyleType="text/css" data-diagram-type="CLASS" height="792.7083px" preserveAspectRatio="none" style="width:1822px;height:792px;" version="1.1" viewBox="0 0 1822 792" width="1822.9167px" zoomAndPan="magnify"><title>Diagrama de Classes - Modelos do Banco de Dados (Registro Refei&#231;&#245;es)</title><defs><linearGradient id="gish78ccn1n8z0" x1="50%" x2="50%" y1="0%" y2="100%"><stop offset="0%" stop-color="#2FA4E7"/><stop offset="100%" stop-color="#2683B9"/></linearGradient></defs><g><g class="title" data-source-line="3"><rect fill="none" height="47.168" rx="4.1667" ry="4.1667" style="stroke:#BABDBF;stroke-width:1.0417;" width="866.9922" x="473.7281" y="20.8333"/><text fill="#2FA4E7" font-family="Verdana" font-size="20.8333" font-weight="bold" lengthAdjust="spacing" textLength="844.0755" x="485.1864" y="51.6296">Diagrama de Classes - Modelos do Banco de Dados (Registro Refei&#231;&#245;es)</text></g><!--class Group--><g class="entity" data-entity="Group" data-source-line="6" data-uid="ent0002" id="entity_Group"><rect fill="none" height="98.348" rx="4.1667" ry="4.1667" style="stroke:#2FA4E7;stroke-width:1.0417;" width="252.8742" x="17.7083" y="344.8971"/><rect fill="url(#gish78ccn1n8z0)" height="34.1715" rx="4.1667" ry="4.1667" style="stroke:url(#gish78ccn1n8z0);stroke-width:1.0417;" width="252.8742" x="17.7083" y="344.8971"/><rect fill="url(#gish78ccn1n8z0)" height="4.1667" style="stroke:url(#gish78ccn1n8z0);stroke-width:1.0417;" width="252.8742" x="17.7083" y="374.902"/><rect fill="none" height="98.348" rx="4.1667" ry="4.1667" style="stroke:#2FA4E7;stroke-width:1.0417;" width="252.8742" x="17.7083" y="344.8971"/><ellipse cx="117.2025" cy="361.9829" fill="#EDF0F2" rx="10.4167" ry="10.4167" style="stroke:#BABDBF;stroke-width:1.0417;"/><path d="M119.1068,366.41 Q118.6836,366.6216 118.2116,366.7355 Q117.7396,366.8494 117.2351,366.8494 Q115.3796,366.8494 114.403,365.645 Q113.4427,364.4243 113.4427,362.1294 Q113.4427,359.8182 114.403,358.6138 Q115.3796,357.3931 117.2351,357.3931 Q117.7396,357.3931 118.2116,357.507 Q118.6999,357.6047 119.1068,357.8325 L119.1068,359.8345 Q118.6511,359.4113 118.2116,359.216 Q117.7722,359.0044 117.3164,359.0044 Q116.3236,359.0044 115.819,359.8019 Q115.3145,360.5832 115.3145,362.1294 Q115.3145,363.6593 115.819,364.4406 Q116.3236,365.2218 117.3164,365.2218 Q117.7722,365.2218 118.2116,365.0265 Q118.6511,364.8312 119.1068,364.408 L119.1068,366.41 Z " fill="#2FA4E7"/><text fill="#343A40" font-family="Verdana" font-size="11.4583" lengthAdjust="spacing" textLength="35.1359" x="142.2025" y="365.9497">Group</text><line style="stroke:#2FA4E7;stroke-width:1.0417;" x1="18.75" x2="269.5409" y1="379.0687" y2="379.0687"/><ellipse cx="29.1667" cy="396.6753" fill="none" rx="3.125" ry="3.125" style="stroke:#2683B9;stroke-width:1.0417;"/><text fill="#343A40" font-family="Verdana" font-size="11.4583" lengthAdjust="spacing" textLength="65.5441" x="42.7083" y="399.0796">id: int {PK}</text><line style="stroke:#2FA4E7;stroke-width:1.0417;" x1="18.75" x2="269.5409" y1="411.1569" y2="411.1569"/><ellipse cx="29.1667" cy="428.7635" fill="none" rx="3.125" ry="3.125" style="stroke:#2683B9;stroke-width:1.0417;"/><text fill="#343A40" font-family="Verdana" font-size="11.4583" lengthAdjust="spacing" textLength="216.4159" x="42.7083" y="431.1678">nome: str {unique, not null, indexed}</text></g><g class="entity" data-entity="GMN3" data-source-line="11" data-uid="ent0004" id="entity_GMN3"><path d="M307.4479,380.5534 L307.4479,389.9076 L270.8646,394.0742 L307.4479,398.2409 L307.4479,407.6042 A4.1667,4.1667 0 0 0 311.6146,411.7708 L549.5866,411.7708 A4.1667,4.1667 0 0 0 553.7533,407.6042 L553.7533,386.8034 L543.3366,376.3867 L311.6146,376.3867 A4.1667,4.1667 0 0 0 307.4479,380.5534" fill="none" style="stroke:#033C73;stroke-width:1.0417;"/><path d="M543.3366,376.3867 L543.3366,384.7201 A2.0833,2.0833 0 0 0 545.4199,386.8034 L553.7533,386.8034 L543.3366,376.3867" fill="none" style="stroke:#033C73;stroke-width:1.0417;"/><text fill="#033C73" font-family="Verdana" font-size="12.5" lengthAdjust="spacing" textLength="214.0137" x="318.9063" y="398.4062">Representa uma turma de alunos.</text></g><!--class Student--><g class="entity" data-entity="Student" data-source-line="14" data-uid="ent0006" id="entity_Student"><rect fill="none" height="122.1029" rx="4.1667" ry="4.1667" style="stroke:#2FA4E7;stroke-width:1.0417;" width="251.1398" x="500.8646" y="86.7513"/><rect fill="url(#gish78ccn1n8z0)" height="34.1715" rx="4.1667" ry="4.1667" style="stroke:url(#gish78ccn1n8z0);stroke-width:1.0417;" width="251.1398" x="500.8646" y="86.7513"/><rect fill="url(#gish78ccn1n8z0)" height="4.1667" style="stroke:url(#gish78ccn1n8z0);stroke-width:1.0417;" width="251.1398" x="500.8646" y="116.7562"/><rect fill="none" height="122.1029" rx="4.1667" ry="4.1667" style="stroke:#2FA4E7;stroke-width:1.0417;" width="251.1398" x="500.8646" y="86.7513"/><ellipse cx="594.5065" cy="103.8371" fill="#EDF0F2" rx="10.4167" ry="10.4167" style="stroke:#BABDBF;stroke-width:1.0417;"/><path d="M596.4108,108.2642 Q595.9876,108.4757 595.5156,108.5897 Q595.0436,108.7036 594.5391,108.7036 Q592.6836,108.7036 591.707,107.4992 Q590.7467,106.2785 590.7467,103.9836 Q590.7467,101.6724 591.707,100.4679 Q592.6836,99.2472 594.5391,99.2472 Q595.0436,99.2472 595.5156,99.3612 Q596.0039,99.4588 596.4108,99.6867 L596.4108,101.6886 Q595.9551,101.2655 595.5156,101.0701 Q595.0762,100.8586 594.6204,100.8586 Q593.6276,100.8586 593.123,101.6561 Q592.6185,102.4373 592.6185,103.9836 Q592.6185,105.5135 593.123,106.2948 Q593.6276,107.076 594.6204,107.076 Q595.0762,107.076 595.5156,106.8807 Q595.9551,106.6854 596.4108,106.2622 L596.4108,108.2642 Z " fill="#2FA4E7"/><text fill="#343A40" font-family="Verdana" font-size="11.4583" lengthAdjust="spacing" textLength="45.106" x="619.5065" y="107.8039">Student</text><line style="stroke:#2FA4E7;stroke-width:1.0417;" x1="501.9063" x2="750.9627" y1="120.9229" y2="120.9229"/><ellipse cx="512.3229" cy="138.5295" fill="none" rx="3.125" ry="3.125" style="stroke:#2683B9;stroke-width:1.0417;"/><text fill="#343A40" font-family="Verdana" font-size="11.4583" lengthAdjust="spacing" textLength="65.5441" x="525.8646" y="140.9337">id: int {PK}</text><line style="stroke:#2FA4E7;stroke-width:1.0417;" x1="501.9063" x2="750.9627" y1="153.0111" y2="153.0111"/><ellipse cx="512.3229" cy="170.6177" fill="none" rx="3.125" ry="3.125" style="stroke:#2683B9;stroke-width:1.0417;"/><text fill="#343A40" font-family="Verdana" font-size="11.4583" lengthAdjust="spacing" textLength="214.6815" x="525.8646" y="173.022">pront: str {unique, not null, indexed}</text><ellipse cx="512.3229" cy="194.3726" fill="none" rx="3.125" ry="3.125" style="stroke:#2683B9;stroke-width:1.0417;"/><text fill="#343A40" font-family="Verdana" font-size="11.4583" lengthAdjust="spacing" textLength="169.8385" x="525.8646" y="196.7768">nome: str {not null, indexed}</text></g><g class="entity" data-entity="GMN7" data-source-line="20" data-uid="ent0008" id="entity_GMN7"><path d="M788.4792,134.2721 L788.4792,143.6263 L752.5208,147.793 L788.4792,151.9596 L788.4792,161.3229 A4.1667,4.1667 0 0 0 792.6458,165.4896 L1028.9699,165.4896 A4.1667,4.1667 0 0 0 1033.1366,161.3229 L1033.1366,140.5221 L1022.7199,130.1055 L792.6458,130.1055 A4.1667,4.1667 0 0 0 788.4792,134.2721" fill="none" style="stroke:#033C73;stroke-width:1.0417;"/><path d="M1022.7199,130.1055 L1022.7199,138.4388 A2.0833,2.0833 0 0 0 1024.8032,140.5221 L1033.1366,140.5221 L1022.7199,130.1055" fill="none" style="stroke:#033C73;stroke-width:1.0417;"/><text fill="#033C73" font-family="Verdana" font-size="12.5" lengthAdjust="spacing" textLength="212.3657" x="799.9375" y="152.1249">Representa um aluno cadastrado.</text></g><!--class Reserve--><g class="entity" data-entity="Reserve" data-source-line="23" data-uid="ent0010" id="entity_Reserve"><rect fill="none" height="193.3675" rx="4.1667" ry="4.1667" style="stroke:#2FA4E7;stroke-width:1.0417;" width="452.6566" x="1255.3125" y="297.3867"/><rect fill="url(#gish78ccn1n8z0)" height="34.1715" rx="4.1667" ry="4.1667" style="stroke:url(#gish78ccn1n8z0);stroke-width:1.0417;" width="452.6566" x="1255.3125" y="297.3867"/><rect fill="url(#gish78ccn1n8z0)" height="4.1667" style="stroke:url(#gish78ccn1n8z0);stroke-width:1.0417;" width="452.6566" x="1255.3125" y="327.3916"/><rect fill="none" height="193.3675" rx="4.1667" ry="4.1667" style="stroke:#2FA4E7;stroke-width:1.0417;" width="452.6566" x="1255.3125" y="297.3867"/><ellipse cx="1448.9798" cy="314.4725" fill="#EDF0F2" rx="10.4167" ry="10.4167" style="stroke:#BABDBF;stroke-width:1.0417;"/><path d="M1450.8841,318.8996 Q1450.461,319.1112 1449.989,319.2251 Q1449.517,319.339 1449.0124,319.339 Q1447.1569,319.339 1446.1804,318.1346 Q1445.2201,316.9139 1445.2201,314.619 Q1445.2201,312.3078 1446.1804,311.1034 Q1447.1569,309.8826 1449.0124,309.8826 Q1449.517,309.8826 1449.989,309.9966 Q1450.4772,310.0942 1450.8841,310.3221 L1450.8841,312.3241 Q1450.4284,311.9009 1449.989,311.7056 Q1449.5495,311.494 1449.0938,311.494 Q1448.1009,311.494 1447.5964,312.2915 Q1447.0918,313.0728 1447.0918,314.619 Q1447.0918,316.1489 1447.5964,316.9302 Q1448.1009,317.7114 1449.0938,317.7114 Q1449.5495,317.7114 1449.989,317.5161 Q1450.4284,317.3208 1450.8841,316.8976 L1450.8841,318.8996 Z " fill="#2FA4E7"/><text fill="#343A40" font-family="Verdana" font-size="11.4583" lengthAdjust="spacing" textLength="46.5719" x="1473.9798" y="318.4393">Reserve</text><line style="stroke:#2FA4E7;stroke-width:1.0417;" x1="1256.3542" x2="1706.9274" y1="331.5583" y2="331.5583"/><ellipse cx="1266.7708" cy="349.1649" fill="none" rx="3.125" ry="3.125" style="stroke:#2683B9;stroke-width:1.0417;"/><text fill="#343A40" font-family="Verdana" font-size="11.4583" lengthAdjust="spacing" textLength="65.5441" x="1280.3125" y="351.5692">id: int {PK}</text><line style="stroke:#2FA4E7;stroke-width:1.0417;" x1="1256.3542" x2="1706.9274" y1="363.6465" y2="363.6465"/><polygon fill="none" points="1266.7708,376.0448,1270.9375,380.2114,1266.7708,384.3781,1262.6042,380.2114" style="stroke:#2683B9;stroke-width:1.0417;"/><text fill="#343A40" font-family="Verdana" font-size="11.4583" lengthAdjust="spacing" textLength="416.1982" x="1280.3125" y="383.6574">student_id: int {FK, not null, indexed} ' '#' indica protegido (conven&#231;&#227;o)</text><ellipse cx="1266.7708" cy="405.008" fill="none" rx="3.125" ry="3.125" style="stroke:#2683B9;stroke-width:1.0417;"/><text fill="#343A40" font-family="Verdana" font-size="11.4583" lengthAdjust="spacing" textLength="111.025" x="1280.3125" y="407.4123">dish: str {optional}</text><ellipse cx="1266.7708" cy="428.7629" fill="none" rx="3.125" ry="3.125" style="stroke:#2683B9;stroke-width:1.0417;"/><text fill="#343A40" font-family="Verdana" font-size="11.4583" lengthAdjust="spacing" textLength="163.1638" x="1280.3125" y="431.1671">data: str {not null, indexed}</text><ellipse cx="1266.7708" cy="452.5177" fill="none" rx="3.125" ry="3.125" style="stroke:#2683B9;stroke-width:1.0417;"/><text fill="#343A40" font-family="Verdana" font-size="11.4583" lengthAdjust="spacing" textLength="270.2779" x="1280.3125" y="454.922">snacks: bool {not null, indexed, default=false}</text><ellipse cx="1266.7708" cy="476.2726" fill="none" rx="3.125" ry="3.125" style="stroke:#2683B9;stroke-width:1.0417;"/><text fill="#343A40" font-family="Verdana" font-size="11.4583" lengthAdjust="spacing" textLength="229.4017" x="1280.3125" y="478.6769">canceled: bool {not null, default=false}</text></g><g class="entity" data-entity="GMN11" data-source-line="33" data-uid="ent0012" id="entity_GMN11"><path d="M1376.9688,659.3451 L1376.9688,700.9466 A4.1667,4.1667 0 0 0 1381.1354,705.1133 L1807.1567,705.1133 A4.1667,4.1667 0 0 0 1811.3234,700.9466 L1811.3234,665.5951 L1800.9067,655.1784 L1588.7188,655.1784 L1519.7292,491.2617 L1580.3854,655.1784 L1381.1354,655.1784 A4.1667,4.1667 0 0 0 1376.9688,659.3451" fill="none" style="stroke:#033C73;stroke-width:1.0417;"/><path d="M1800.9067,655.1784 L1800.9067,663.5117 A2.0833,2.0833 0 0 0 1802.9901,665.5951 L1811.3234,665.5951 L1800.9067,655.1784" fill="none" style="stroke:#033C73;stroke-width:1.0417;"/><text fill="#033C73" font-family="Verdana" font-size="12.5" lengthAdjust="spacing" textLength="232.8796" x="1388.4271" y="677.1978">Representa uma reserva de refei&#231;&#227;o.</text><text fill="#033C73" font-family="Verdana" font-size="12.5" lengthAdjust="spacing" textLength="402.063" x="1388.4271" y="691.7486">Constraint: UNIQUE(student_id, data, snacks) [Ignora no SQLite]</text></g><!--class Session--><g class="entity" data-entity="Session" data-source-line="38" data-uid="ent0014" id="entity_Session"><rect fill="none" height="193.3675" rx="4.1667" ry="4.1667" style="stroke:#2FA4E7;stroke-width:1.0417;" width="228.005" x="990.5625" y="297.3867"/><rect fill="url(#gish78ccn1n8z0)" height="34.1715" rx="4.1667" ry="4.1667" style="stroke:url(#gish78ccn1n8z0);stroke-width:1.0417;" width="228.005" x="990.5625" y="297.3867"/><rect fill="url(#gish78ccn1n8z0)" height="4.1667" style="stroke:url(#gish78ccn1n8z0);stroke-width:1.0417;" width="228.005" x="990.5625" y="327.3916"/><rect fill="none" height="193.3675" rx="4.1667" ry="4.1667" style="stroke:#2FA4E7;stroke-width:1.0417;" width="228.005" x="990.5625" y="297.3867"/><ellipse cx="1073.3307" cy="314.4725" fill="#EDF0F2" rx="10.4167" ry="10.4167" style="stroke:#BABDBF;stroke-width:1.0417;"/><path d="M1075.235,318.8996 Q1074.8119,319.1112 1074.3399,319.2251 Q1073.8679,319.339 1073.3633,319.339 Q1071.5078,319.339 1070.5313,318.1346 Q1069.571,316.9139 1069.571,314.619 Q1069.571,312.3078 1070.5313,311.1034 Q1071.5078,309.8826 1073.3633,309.8826 Q1073.8679,309.8826 1074.3399,309.9966 Q1074.8281,310.0942 1075.235,310.3221 L1075.235,312.3241 Q1074.7793,311.9009 1074.3399,311.7056 Q1073.9004,311.494 1073.4447,311.494 Q1072.4518,311.494 1071.9473,312.2915 Q1071.4427,313.0728 1071.4427,314.619 Q1071.4427,316.1489 1071.9473,316.9302 Q1072.4518,317.7114 1073.4447,317.7114 Q1073.9004,317.7114 1074.3399,317.5161 Q1074.7793,317.3208 1075.235,316.8976 L1075.235,318.8996 Z " fill="#2FA4E7"/><text fill="#343A40" font-family="Verdana" font-size="11.4583" lengthAdjust="spacing" textLength="43.7185" x="1098.3307" y="318.4393">Session</text><line style="stroke:#2FA4E7;stroke-width:1.0417;" x1="991.6042" x2="1217.5258" y1="331.5583" y2="331.5583"/><ellipse cx="1002.0208" cy="349.1649" fill="none" rx="3.125" ry="3.125" style="stroke:#2683B9;stroke-width:1.0417;"/><text fill="#343A40" font-family="Verdana" font-size="11.4583" lengthAdjust="spacing" textLength="65.5441" x="1015.5625" y="351.5692">id: int {PK}</text><line style="stroke:#2FA4E7;stroke-width:1.0417;" x1="991.6042" x2="1217.5258" y1="363.6465" y2="363.6465"/><ellipse cx="1002.0208" cy="381.2531" fill="none" rx="3.125" ry="3.125" style="stroke:#2683B9;stroke-width:1.0417;"/><text fill="#343A40" font-family="Verdana" font-size="11.4583" lengthAdjust="spacing" textLength="130.5567" x="1015.5625" y="383.6574">refeicao: str {not null}</text><ellipse cx="1002.0208" cy="405.008" fill="none" rx="3.125" ry="3.125" style="stroke:#2683B9;stroke-width:1.0417;"/><text fill="#343A40" font-family="Verdana" font-size="11.4583" lengthAdjust="spacing" textLength="130.8477" x="1015.5625" y="407.4123">periodo: str {optional}</text><ellipse cx="1002.0208" cy="428.7629" fill="none" rx="3.125" ry="3.125" style="stroke:#2683B9;stroke-width:1.0417;"/><text fill="#343A40" font-family="Verdana" font-size="11.4583" lengthAdjust="spacing" textLength="163.1638" x="1015.5625" y="431.1671">data: str {not null, indexed}</text><ellipse cx="1002.0208" cy="452.5177" fill="none" rx="3.125" ry="3.125" style="stroke:#2683B9;stroke-width:1.0417;"/><text fill="#343A40" font-family="Verdana" font-size="11.4583" lengthAdjust="spacing" textLength="110.2025" x="1015.5625" y="454.922">hora: str {not null}</text><ellipse cx="1002.0208" cy="476.2726" fill="none" rx="3.125" ry="3.125" style="stroke:#2683B9;stroke-width:1.0417;"/><text fill="#343A40" font-family="Verdana" font-size="11.4583" lengthAdjust="spacing" textLength="191.5466" x="1015.5625" y="478.6769">groups: str/Text {optional, JSON}</text></g><g class="entity" data-entity="GMN15" data-source-line="47" data-uid="ent0016" id="entity_GMN15"><path d="M748.4896,373.2721 L748.4896,414.8737 A4.1667,4.1667 0 0 0 752.6563,419.0404 L950.2108,419.0404 A4.1667,4.1667 0 0 0 954.3774,414.8737 L954.3774,398.2409 L990.1667,394.0742 L954.3774,389.9076 L954.3774,379.5221 L943.9608,369.1055 L752.6563,369.1055 A4.1667,4.1667 0 0 0 748.4896,373.2721" fill="none" style="stroke:#033C73;stroke-width:1.0417;"/><path d="M943.9608,369.1055 L943.9608,377.4388 A2.0833,2.0833 0 0 0 946.0441,379.5221 L954.3774,379.5221 L943.9608,369.1055" fill="none" style="stroke:#033C73;stroke-width:1.0417;"/><text fill="#033C73" font-family="Verdana" font-size="12.5" lengthAdjust="spacing" textLength="173.5962" x="759.9479" y="391.1249">Representa uma ocorr&#234;ncia</text><text fill="#033C73" font-family="Verdana" font-size="12.5" lengthAdjust="spacing" textLength="142.45" x="759.9479" y="405.6757">de servi&#231;o de refei&#231;&#227;o.</text></g><!--class Consumption--><g class="entity" data-entity="Consumption" data-source-line="50" data-uid="ent0018" id="entity_Consumption"><rect fill="none" height="201.7008" rx="4.1667" ry="4.1667" style="stroke:#2FA4E7;stroke-width:1.0417;" width="393.485" x="491.1563" y="579.3034"/><rect fill="url(#gish78ccn1n8z0)" height="34.1715" rx="4.1667" ry="4.1667" style="stroke:url(#gish78ccn1n8z0);stroke-width:1.0417;" width="393.485" x="491.1563" y="579.3034"/><rect fill="url(#gish78ccn1n8z0)" height="4.1667" style="stroke:url(#gish78ccn1n8z0);stroke-width:1.0417;" width="393.485" x="491.1563" y="609.3083"/><rect fill="none" height="201.7008" rx="4.1667" ry="4.1667" style="stroke:#2FA4E7;stroke-width:1.0417;" width="393.485" x="491.1563" y="579.3034"/><ellipse cx="640.5792" cy="596.3892" fill="#EDF0F2" rx="10.4167" ry="10.4167" style="stroke:#BABDBF;stroke-width:1.0417;"/><path d="M642.4835,600.8162 Q642.0603,601.0278 641.5883,601.1418 Q641.1163,601.2557 640.6118,601.2557 Q638.7563,601.2557 637.7797,600.0513 Q636.8194,598.8306 636.8194,596.5356 Q636.8194,594.2244 637.7797,593.02 Q638.7563,591.7993 640.6118,591.7993 Q641.1163,591.7993 641.5883,591.9132 Q642.0766,592.0109 642.4835,592.2388 L642.4835,594.2407 Q642.0278,593.8175 641.5883,593.6222 Q641.1489,593.4106 640.6931,593.4106 Q639.7003,593.4106 639.1957,594.2082 Q638.6912,594.9894 638.6912,596.5356 Q638.6912,598.0656 639.1957,598.8468 Q639.7003,599.6281 640.6931,599.6281 Q641.1489,599.6281 641.5883,599.4328 Q642.0278,599.2375 642.4835,598.8143 L642.4835,600.8162 Z " fill="#2FA4E7"/><text fill="#343A40" font-family="Verdana" font-size="11.4583" lengthAdjust="spacing" textLength="75.8891" x="665.5792" y="600.3559">Consumption</text><line style="stroke:#2FA4E7;stroke-width:1.0417;" x1="492.1979" x2="883.5996" y1="613.4749" y2="613.4749"/><ellipse cx="502.6146" cy="631.0815" fill="none" rx="3.125" ry="3.125" style="stroke:#2683B9;stroke-width:1.0417;"/><text fill="#343A40" font-family="Verdana" font-size="11.4583" lengthAdjust="spacing" textLength="65.5441" x="516.1563" y="633.4858">id: int {PK}</text><line style="stroke:#2FA4E7;stroke-width:1.0417;" x1="492.1979" x2="883.5996" y1="645.5632" y2="645.5632"/><polygon fill="none" points="502.6146,657.9614,506.7813,662.1281,502.6146,666.2948,498.4479,662.1281" style="stroke:#2683B9;stroke-width:1.0417;"/><text fill="#343A40" font-family="Verdana" font-size="11.4583" lengthAdjust="spacing" textLength="218.4972" x="516.1563" y="665.574">student_id: int {FK, not null, indexed}</text><polygon fill="none" points="502.6146,681.7163,506.7813,685.883,502.6146,690.0496,498.4479,685.883" style="stroke:#2683B9;stroke-width:1.0417;"/><text fill="#343A40" font-family="Verdana" font-size="11.4583" lengthAdjust="spacing" textLength="217.1097" x="516.1563" y="689.3289">session_id: int {FK, not null, indexed}</text><polygon fill="none" points="502.6146,705.4712,506.7813,709.6379,502.6146,713.8045,498.4479,709.6379" style="stroke:#2683B9;stroke-width:1.0417;"/><text fill="#343A40" font-family="Verdana" font-size="11.4583" lengthAdjust="spacing" textLength="221.1548" x="516.1563" y="713.0838">reserve_id: int {FK, optional, indexed}</text><line style="stroke:#2FA4E7;stroke-width:1.0417;" x1="492.1979" x2="883.5996" y1="725.1611" y2="725.1611"/><ellipse cx="502.6146" cy="742.7677" fill="none" rx="3.125" ry="3.125" style="stroke:#2683B9;stroke-width:1.0417;"/><text fill="#343A40" font-family="Verdana" font-size="11.4583" lengthAdjust="spacing" textLength="190.0024" x="516.1563" y="745.172">consumption_time: str {not null}</text><ellipse cx="502.6146" cy="766.5226" fill="none" rx="3.125" ry="3.125" style="stroke:#2683B9;stroke-width:1.0417;"/><text fill="#343A40" font-family="Verdana" font-size="11.4583" lengthAdjust="spacing" textLength="357.0267" x="516.1563" y="768.9269">consumed_without_reservation: bool {not null, default=false}</text></g><g class="entity" data-entity="GMN19" data-source-line="61" data-uid="ent0020" id="entity_GMN19"><path d="M920.875,652.0742 L920.875,675.9805 L885.0417,680.1471 L920.875,684.3138 L920.875,708.2266 A4.1667,4.1667 0 0 0 925.0417,712.3932 L1336.1704,712.3932 A4.1667,4.1667 0 0 0 1340.3371,708.2266 L1340.3371,658.3242 L1329.9204,647.9076 L925.0417,647.9076 A4.1667,4.1667 0 0 0 920.875,652.0742" fill="none" style="stroke:#033C73;stroke-width:1.0417;"/><path d="M1329.9204,647.9076 L1329.9204,656.2409 A2.0833,2.0833 0 0 0 1332.0037,658.3242 L1340.3371,658.3242 L1329.9204,647.9076" fill="none" style="stroke:#033C73;stroke-width:1.0417;"/><text fill="#033C73" font-family="Verdana" font-size="12.5" lengthAdjust="spacing" textLength="230.1697" x="932.3333" y="669.927">Registra o consumo de uma refei&#231;&#227;o</text><text fill="#033C73" font-family="Verdana" font-size="12.5" lengthAdjust="spacing" textLength="189.447" x="932.3333" y="684.4778">por um aluno em uma sess&#227;o.</text><text fill="#033C73" font-family="Verdana" font-size="12.5" lengthAdjust="spacing" textLength="387.1704" x="932.3333" y="699.0286">Constraint: UNIQUE(student_id, session_id) [Ignora no SQLite]</text></g><!--link Student to Group--><g class="link" data-entity-1="Student" data-entity-2="Group" data-source-line="70" data-uid="lnk22" id="link_Student_Group"><path codeLine="70" d="M500.5521,196.5326 C467.0313,209.9596 431.0521,225.0221 398.3125,240.0951 C348.4688,263.0534 336.1979,269.5013 288.9375,297.3867 C264.2917,311.9388 238,328.8555 214.6667,344.3867" fill="none" id="Student-Group" style="stroke:#2FA4E7;stroke-width:3.125;"/><polygon fill="#343A40" points="406.1802,251.7064,398.3599,252.9936,400.6101,257.3444,406.1802,251.7064" style="stroke:#343A40;stroke-width:1.0417;"/><text fill="#343A40" font-family="Verdana" font-size="12.5" lengthAdjust="spacing" textLength="176.8982" x="417.0625" y="257.9478">(student_group_association)</text><text fill="#343A40" font-family="Verdana" font-size="12.5" lengthAdjust="spacing" textLength="6.25" x="480.915" y="191.6556">*</text><text fill="#343A40" font-family="Verdana" font-size="12.5" lengthAdjust="spacing" textLength="6.25" x="212.3422" y="328.2568">*</text></g><!--link Student to Reserve--><g class="link" data-entity-1="Student" data-entity-2="Reserve" data-source-line="73" data-uid="lnk23" id="link_Student_Reserve"><path codeLine="73" d="M752.5,203.1784 C758.4479,205.1992 764.3542,207.1055 770.1875,208.8451 C972.3854,269.5117 1033.9688,239.0534 1236.8542,297.3867 C1242.8854,299.1263 1248.9688,300.9492 1255.0938,302.8451" fill="none" id="Student-Reserve" style="stroke:#2FA4E7;stroke-width:3.125;"/><polygon fill="#343A40" points="1102.3996,254.4309,1095.4824,250.5624,1094.5296,255.3671,1102.3996,254.4309" style="stroke:#343A40;stroke-width:1.0417;"/><text fill="#343A40" font-family="Verdana" font-size="12.5" lengthAdjust="spacing" textLength="40.0024" x="1112.8958" y="257.9478">possui</text><text fill="#343A40" font-family="Verdana" font-size="12.5" lengthAdjust="spacing" textLength="7.9529" x="765.5275" y="198.5692">1</text><text fill="#343A40" font-family="Verdana" font-size="12.5" lengthAdjust="spacing" textLength="6.25" x="1235.1944" y="292.0071">*</text></g><!--link Student to Consumption--><g class="link" data-entity-1="Student" data-entity-2="Consumption" data-source-line="76" data-uid="lnk24" id="link_Student_Consumption"><path codeLine="76" d="M626.6875,209.3555 C627.6875,277.9284 631.5,392.8763 645.1875,490.7617 C649.2292,519.6471 655.4479,550.6576 661.9167,579.0013" fill="none" id="Student-Consumption" style="stroke:#2FA4E7;stroke-width:3.125;"/><polygon fill="#343A40" points="648.9589,390.4309,647.2359,398.1668,652.112,397.7021,648.9589,390.4309" style="stroke:#343A40;stroke-width:1.0417;"/><text fill="#343A40" font-family="Verdana" font-size="12.5" lengthAdjust="spacing" textLength="60.4492" x="663.9375" y="398.9062">consumiu</text><text fill="#343A40" font-family="Verdana" font-size="12.5" lengthAdjust="spacing" textLength="7.9529" x="613.3346" y="233.8016">1</text><text fill="#343A40" font-family="Verdana" font-size="12.5" lengthAdjust="spacing" textLength="6.25" x="647.7238" y="562.8791">*</text></g><!--link Session to Consumption--><g class="link" data-entity-1="Session" data-entity-2="Consumption" data-source-line="79" data-uid="lnk25" id="link_Session_Consumption"><path codeLine="79" d="M990.0417,478.3451 C984.0417,482.5742 978.0938,486.7305 972.2708,490.7617 C930.2708,519.8242 884.3021,550.6888 841.7917,578.8346" fill="none" id="Session-Consumption" style="stroke:#2FA4E7;stroke-width:3.125;"/><polygon fill="#343A40" points="927.1552,537.875,934.7686,535.673,932.0203,531.6185,927.1552,537.875" style="stroke:#343A40;stroke-width:1.0417;"/><text fill="#343A40" font-family="Verdana" font-size="12.5" lengthAdjust="spacing" textLength="48.4497" x="945.1875" y="539.8645">registra</text><text fill="#343A40" font-family="Verdana" font-size="12.5" lengthAdjust="spacing" textLength="7.9529" x="968.8899" y="476.3166">1</text><text fill="#343A40" font-family="Verdana" font-size="12.5" lengthAdjust="spacing" textLength="6.25" x="841.9326" y="562.6992">*</text></g><!--link Reserve to Consumption--><g class="link" data-entity-1="Reserve" data-entity-2="Consumption" data-source-line="83" data-uid="lnk26" id="link_Reserve_Consumption"><path codeLine="83" d="M1254.9167,484.7305 C1248.8438,486.793 1242.8125,488.8138 1236.8542,490.7617 C1163.7813,514.6263 974.7604,553.1471 902.4792,579.3034 C896.6875,581.3971 890.8333,583.5951 884.9479,585.8659" fill="none" id="Reserve-Consumption" style="stroke:#2FA4E7;stroke-width:3.125;"/><polygon fill="#343A40" points="1125.2484,534.4384,1117.3318,534.0635,1118.6234,538.7884,1125.2484,534.4384" style="stroke:#343A40;stroke-width:1.0417;"/><text fill="#343A40" font-family="Verdana" font-size="12.5" lengthAdjust="spacing" textLength="125.3723" x="1135.8125" y="539.8645">gerou / baseado em</text><text fill="#343A40" font-family="Verdana" font-size="12.5" lengthAdjust="spacing" textLength="23.8525" x="1231.7798" y="489.4011">0..1</text><text fill="#343A40" font-family="Verdana" font-size="12.5" lengthAdjust="spacing" textLength="7.9529" x="898.2123" y="574.5873">1</text></g><!--SRC=[hLNRRXj737tVhs3b1qkDrgbV1JL0Oxj5ckRcorDI2EDTIXfqTgZEnGbW-6loKBH07_C5-h5mBYjjrefj17cIXkIGXuTdk3-u9JO85HglKEYIl5DIOx4Fv-l_dLS4DS6n50iZ6b4uwHHkZb0Z72bXBLeeuGNLgCY6-AT2LnIynw9co_0K5z8wGt2ASvJhVzQVq8uAhf5kms_6hmY6vzuqObHKmSWsyYkuBW0UWQmd8BM3wzVFRzXGbj6ggS49S5wuzbh-xN7C9WVQApNcy1e_O7rJt1HiH31oiNH0yvntmb1M1Yrg9y1pAoxK3f25yfhiGGVTBy6IKPqvNsD0SWUkbI7jxWVMQ-41qDlYFV09CbIY5fo96U-2F-KmSoKo_7J2E-3lCPfOPRRn_lfy5txOX_sz_N2KbGWzEnuoptvOaRv2pKF-IADOffPscPkabPEaXKhTryA9htSV8gmMrLzs0fT4QaVGc0Ss5rwvd-T2MKntAXOVAgnlt-e5PteloJbg0h-P7SxI4uT990PvcApWZymom17fGBaCyxvu-UpDnSbmIzyuDZZEJOpWxRE59YEOIpXxyuTq-6U1kWxKOcTWPsWjPs_rnYTcx4wzHKYLe1wLYOqL6aarVIF_IyQxC-qYl28RNO_FyOFRfXx3xsUlNcxOLJXFsisDt7fuL94nw_zq9SKxBWs1QIQO-cHl6Gga-wPbA9rYyUyXwnIRm3ueDca3lupTaj69pUEgje1dJjvw_pUT8AndxwLRyawUPGc6MmyLzcPlT2YAsexBc9dFLIBLIUOjtHos8hFTBTZ409kq-G3bRncyH_Syrh8i6PGILQ2iuGpyoM1RSCNL2zFoIVk9UE4bkykLCA9C_-5AylOMbvmWhczhYQMKrq-xCGS_3ZXb_6dt_s0A6yHHpRDyDT0q6cohS_6yH65uqMIZOqP2VT7kL64xrGutrTg5Es4-hVKIddoHE4jvHs9gbKsx4tTbFyc3b1wc8NrU8Rq2OcFVNIC_qA_MCArkOWij9TD-aTRn-jNn2LSomAtbW77dV_9VIHE6rhatujmNLZ0a-EdWu91faxRpne8Ikx3M__9RYy9HHSlr85nCJHpscvZ20ddOy1WkXKN-LdB2pm00]--></g></svg>